<svg xmlns="http://www.w3.org/2000/svg" width="436.073" height="470.07" viewBox="0 0 436.073 470.07">
  <g id="Group_105" data-name="Group 105" transform="translate(-3270.437 -1558.475)">
    <g id="Group_95" data-name="Group 95">
      <path id="Path_103" data-name="Path 103" d="M3285.3,2028.545q-8.091,0-11.959-3.892-4.359-4.557-2.178-12.436l2.389-8.638h12.361l-2.389,8.638q-.946,3.417.372,4.747,1.144,1.139,4.292,1.138a8.74,8.74,0,0,0,4.923-1.138q2.025-1.233,3-4.747l1.155-4.177a7.285,7.285,0,0,0-2.057-7.594,26.6,26.6,0,0,0-4.037-2.468,31.744,31.744,0,0,1-6.6-4.177,14.793,14.793,0,0,1-4.263-6.931,15.565,15.565,0,0,1,.175-8.353l.447-1.614a21.282,21.282,0,0,1,9.058-12.436,25.423,25.423,0,0,1,14.112-3.892q8.091,0,11.958,3.892,4.358,4.557,2.179,12.436l-1.6,5.791h-12.361l1.6-5.791q.97-3.511-.372-4.747-1.034-1.139-4.292-1.139a9.076,9.076,0,0,0-4.923,1.139,7.862,7.862,0,0,0-3,4.747l-.447,1.614a7.075,7.075,0,0,0,2.084,7.5,25.669,25.669,0,0,0,3.752,2.279,32.546,32.546,0,0,1,6.882,4.366q6.582,6.266,4.062,15.379l-1.155,4.177a21.287,21.287,0,0,1-9.059,12.436A25.405,25.405,0,0,1,3285.3,2028.545Z" fill="#fff"/>
      <path id="Path_104" data-name="Path 104" d="M3332.705,2027.786h-12.361l18.381-66.452h18.654q7.977,0,11.932,3.987,4.41,4.368,2.205,12.341l-2,7.215a20.816,20.816,0,0,1-9.058,12.436,25.408,25.408,0,0,1-14.112,3.892h-6.293Zm10.241-37.024h6.293a9.081,9.081,0,0,0,4.922-1.138,7.858,7.858,0,0,0,3-4.747l2-7.215q.92-3.321-.373-4.746-1.146-1.14-4.292-1.139H3348.2Z" fill="#fff"/>
      <path id="Path_105" data-name="Path 105" d="M3410.353,2027.786h-12.585l.973-26.676h-5.618l-7.379,26.676h-12.361l18.381-66.452h18.654q7.977,0,11.932,3.987,4.41,4.368,2.2,12.341l-1.969,7.12a20.821,20.821,0,0,1-9.059,12.436,16.774,16.774,0,0,1-2.139,1.234Zm1.841-50.124q.919-3.321-.373-4.746-1.146-1.14-4.292-1.139h-6.293l-5.225,18.891h6.293a9.083,9.083,0,0,0,4.922-1.139,7.857,7.857,0,0,0,3-4.747Z" fill="#fff"/>
      <path id="Path_106" data-name="Path 106" d="M3426.983,2027.786l18.381-66.452h12.36l-18.381,66.452Z" fill="#fff"/>
      <path id="Path_107" data-name="Path 107" d="M3513.684,1961.334l-18.381,66.452h-7.192l-9.557-33.7-9.321,33.7h-12.361l18.381-66.452h7.191l9.583,33.606,9.3-33.606Z" fill="#fff"/>
      <path id="Path_108" data-name="Path 108" d="M3565.372,1961.334l-2.888,10.443H3549.9l-15.492,56.009h-12.361l15.493-56.009h-12.586l2.889-10.443Z" fill="#fff"/>
      <path id="Path_109" data-name="Path 109" d="M3578.133,2028.545q-8.091,0-11.959-3.892-4.359-4.557-2.178-12.436l2.389-8.638h12.361l-2.39,8.638q-.945,3.417.373,4.747,1.144,1.139,4.292,1.138a8.742,8.742,0,0,0,4.923-1.138q2.025-1.233,3-4.747l1.155-4.177a7.285,7.285,0,0,0-2.057-7.594,26.6,26.6,0,0,0-4.037-2.468,31.717,31.717,0,0,1-6.6-4.177,14.793,14.793,0,0,1-4.263-6.931,15.556,15.556,0,0,1,.175-8.353l.447-1.614a21.282,21.282,0,0,1,9.058-12.436,25.42,25.42,0,0,1,14.112-3.892q8.091,0,11.958,3.892,4.358,4.557,2.179,12.436l-1.6,5.791h-12.361l1.6-5.791q.97-3.511-.372-4.747-1.033-1.139-4.293-1.139a9.073,9.073,0,0,0-4.922,1.139,7.865,7.865,0,0,0-3,4.747l-.446,1.614a7.075,7.075,0,0,0,2.084,7.5,25.684,25.684,0,0,0,3.751,2.279,32.533,32.533,0,0,1,6.883,4.366q6.582,6.266,4.062,15.379l-1.156,4.177a21.285,21.285,0,0,1-9.058,12.436A25.4,25.4,0,0,1,3578.133,2028.545Z" fill="#fff"/>
    </g>
    <g id="Group_96" data-name="Group 96">
      <path id="Path_110" data-name="Path 110" d="M3459.449,1647.211q17.289-8.24,22.361-26.538l7.169-25.918q10.01-36.187-29.192-36.192l-42.821-.073-1.469,5.308-26.467,95.684c14.978-9.224,32.811-14.828,50.652-14.828A74.467,74.467,0,0,1,3459.449,1647.211Zm-26.728-14.853h-6.759l13.658-49.373h10.4q12.792,0,9.535,11.77l-7.169,25.917q-2.284,8.258-11.046,10.981A35.93,35.93,0,0,1,3432.721,1632.358Z" fill="#fff"/>
    </g>
    <g id="Group_98" data-name="Group 98">
      <g id="Group_97" data-name="Group 97">
        <path id="Path_111" data-name="Path 111" d="M3492.267,1673.781c-5.424-12.619-17.037-22.226-32.818-26.57a58.477,58.477,0,0,1-9.113,3.416l10.882,80.207h-32.236l-5.546-75.815-3.864.44-20.849,75.375h-29.429l19.736-71.352c-17.744,10.927-31.476,26.938-36.416,44.794-5.684,20.55,1.612,38.67,17.372,49.39q13.71-12.711,38.729-12.713,28.083,0,33.114,15.943a97.73,97.73,0,0,0,37.206-26.062h-2.549Z" fill="#fff"/>
      </g>
    </g>
    <path id="Path_112" data-name="Path 112" d="M3554.367,1831.787a98.35,98.35,0,0,1,30.715-8.79l1.031-3.726,0,3.6a87.765,87.765,0,0,1,8.829-.5,77.749,77.749,0,0,1,13.383,1.144l-.127-59.679c-12.747-.442-23.792-3.8-32.463-9.305Z" fill="#fff"/>
    <g id="Group_99" data-name="Group 99">
      <path id="Path_113" data-name="Path 113" d="M3593.71,1582.984l6.779-24.509h-76.327l-31.9,115.306c3.836,8.922,4.582,19.348,1.5,30.495a69.068,69.068,0,0,1-14.731,26.558h73.778l2.473-8.939a48.632,48.632,0,0,1,1.205-15.571h-43.8l13.656-49.371H3566.7l6.8-24.595h-40.346l13.657-49.374Z" fill="#fff"/>
      <path id="Path_114" data-name="Path 114" d="M3593.71,1582.984l6.779-24.509h-76.327l-31.9,115.306c3.836,8.922,4.582,19.348,1.5,30.495a69.068,69.068,0,0,1-14.731,26.558h73.778l2.473-8.939a48.632,48.632,0,0,1,1.205-15.571h-43.8l13.656-49.371H3566.7l6.8-24.595h-40.346l13.657-49.374Z" fill="#fff"/>
      <path id="Path_115" data-name="Path 115" d="M3685,1658.1a26.293,26.293,0,0,1-.968,10.534l-7.193,26.005q-9.987,36.1-49.19,36.1c-.415,0-1.047.031-1.9.087h-43.466l21.247-76.812c-22.54,10.592-40.681,29.134-46.524,50.255q-.283,1.029-.524,2.048h3.1l-4.307,15.571c1.217,13.6,8.616,25.121,20.451,32.636l2.99-10.81h29.43l.043,20.115c.96.033,1.921.062,2.9.062a90.99,90.99,0,0,0,19.976-2.286l4.828-17.455,27.365-.436-1.473,5.323c17.723-10.927,31.437-26.927,36.372-44.768C3703.318,1685.657,3697.808,1669.036,3685,1658.1Z" fill="#fff"/>
    </g>
    <path id="Path_116" data-name="Path 116" d="M3631.4,1706.325q12.791,0,16.022-11.684l7.193-26.005q2.283-8.256-5-10.893-2.067-.791-8.205-.79h-9.251l-13.657,49.372Z" fill="#fff"/>
    <g id="Group_100" data-name="Group 100">
      <path id="Path_117" data-name="Path 117" d="M3652.008,1658.93a10.111,10.111,0,0,0-1.521-.835A10.111,10.111,0,0,1,3652.008,1658.93Z" fill="#fff"/>
      <path id="Path_118" data-name="Path 118" d="M3674.552,1644.656q18.062-7.031,22.752-23.983l7.169-25.917q10.011-36.19-29.192-36.193l-45.314-.088-26.428,95.546a96.087,96.087,0,0,1,40.545-9.367c16.938,0,31.082,5.045,40.921,13.448C3683.774,1649.937,3674.552,1644.656,3674.552,1644.656Zm.494-49.9-7.169,25.918q-2.283,8.256-11.046,10.98a35.976,35.976,0,0,1-8.618.7h-9.252l13.656-49.372h12.9Q3678.3,1582.984,3675.046,1594.755Z" fill="#fff"/>
    </g>
    <g id="Group_101" data-name="Group 101">
      <path id="Path_119" data-name="Path 119" d="M3441.812,1756.885l0,.006.006,0Z" fill="#fff"/>
      <path id="Path_120" data-name="Path 120" d="M3443.081,1851.56Z" fill="#fff"/>
      <path id="Path_121" data-name="Path 121" d="M3637.383,1837.261l24.4-88.224a101.3,101.3,0,0,1-30.721,12.569l-17.448,63.078c-1.727-.445-3.478-.858-5.3-1.175l.043,20.175,5.255-19a54.179,54.179,0,0,1,23.766,12.577l-21.8,78.811h-29.425l-.051-93.209c-.346.035-.688.09-1.033.128l-25.747,93.081h-28.284l23.316-84.29c-19.2,9.03-35.137,23.815-43.061,41.06l-5.018-36.977q25.182-7.2,31.474-29.954l7.169-25.918q10.009-36.189-29.191-36.192l-42.819-.086-29.831,107.845c3.823,8.92,4.63,19.3,1.549,30.442s-9.632,21.523-18.39,30.442l-1,3.628h29.429l20.85-75.375,3.864-.439,5.545,75.814h26.194c8.487,15.442,26.84,25.567,50.823,25.567,38.988,0,77.98-26.7,87.091-59.637C3653.968,1864.159,3649.061,1848.19,3637.383,1837.261Zm-140.1-20.37a36.01,36.01,0,0,1-8.615.7h-6.759l13.657-49.372h10.4q12.789,0,9.534,11.771l-7.169,25.918Q3506.043,1814.167,3497.28,1816.891Zm13.839,99.181c-5.31-9.663-6.781-21.393-3.275-34.07a61.05,61.05,0,0,1,3.452-9.16l5.865,43.23Z" fill="#fff"/>
      <path id="Path_122" data-name="Path 122" d="M3425.9,1831.782l15.114-54.64q3.369-12.179.8-20.25a97.792,97.792,0,0,1-23.9,6.275q-1.118.144-2.237.259a87.621,87.621,0,0,1-8.987.466,78.149,78.149,0,0,1-13.1-1.072q-1.242-.211-2.456-.462a58.545,58.545,0,0,1-21.151-8.692q-9.426,8.739-13.512,23.476l-16.63,60.118c-17.724,10.93-31.466,26.9-36.4,44.742-9.111,32.937,15.108,59.637,54.1,59.637,25.806,0,51.556-11.735,68.7-29.2l16.841-60.884A44.029,44.029,0,0,0,3425.9,1831.782Zm-14.044,50.775q-10.012,36.2-52.36,36.283-42.219,0-32.183-36.283l12.529-45.3a100.961,100.961,0,0,1,33.039-13.052l13.02-47.067q3.233-11.687,15.919-11.686h.207q12.765.088,9.558,11.686l-12.641,45.7a79.957,79.957,0,0,0-8.413-.479,90.265,90.265,0,0,0-17.649,1.844l-16.14,58.348q-3.232,11.687,9.558,11.686,12.9,0,16.127-11.686l16.517-59.713a62.059,62.059,0,0,1,26.957,8.939Z" fill="#fff"/>
    </g>
  </g>
</svg>
