<svg xmlns="http://www.w3.org/2000/svg" xmlns:xlink="http://www.w3.org/1999/xlink" width="2887.833" height="2164" viewBox="0 0 2887.833 2164">
  <defs>
    <clipPath id="clip-path">
      <path id="Path_21" data-name="Path 21" d="M-1602.4,4701.213l-2887.833-4v-2160l2887.833,4Z" fill="none"/>
    </clipPath>
  </defs>
  <g id="Group_10" data-name="Group 10" transform="translate(4490.23 -2537.213)">
    <g id="Group_9" data-name="Group 9" clip-path="url(#clip-path)">
      <g id="Group_8" data-name="Group 8">
        <g id="Group_1" data-name="Group 1">
          <path id="Path_1" data-name="Path 1" d="M-4992.137,5840.129q-63.886,0-94.429-30.734-34.428-35.979-17.2-98.2l18.867-68.211h97.6l-18.867,68.211q-7.466,26.985,2.942,37.482,9.031,8.992,33.893,8.993,25.726,0,38.868-8.993,16-9.731,23.676-37.482l9.123-32.984q9.534-34.466-16.241-59.967-5.667-5.235-31.88-19.486-36.537-18.732-52.1-32.984-25.308-23.985-33.665-54.725t1.387-65.962l3.525-12.743q17.21-62.217,71.528-98.2,47.538-30.733,111.432-30.734t94.426,30.734q34.406,35.979,17.2,98.2l-12.648,45.727h-97.6l12.648-45.727q7.669-27.727-2.939-37.483-8.164-8.992-33.893-8.993-24.853,0-38.868,8.993-16.217,10.507-23.679,37.483l-3.525,12.743q-9.538,34.482,16.452,59.219,7.2,6.009,29.627,17.991,40.321,20.993,54.35,34.479,51.972,49.477,32.071,121.435l-9.123,32.984q-17.216,62.233-71.528,98.2Q-4928.267,5840.146-4992.137,5840.129Z" fill="#003dff"/>
          <path id="Path_2" data-name="Path 2" d="M-4617.817,5834.134h-97.6l145.143-524.724h147.3q62.991,0,94.222,31.482,34.818,34.491,17.41,97.45l-15.758,56.969q-17.625,63.72-71.527,98.2-47.566,30.751-111.432,30.734h-49.692Zm80.866-292.348h49.692q24.829,0,38.868-8.992,16.211-10.49,23.678-37.483l15.758-56.969q7.255-26.23-2.944-37.477-9.05-9-33.891-9h-49.692Z" fill="#003dff"/>
          <path id="Path_3" data-name="Path 3" d="M-4004.676,5834.134h-99.379l7.688-210.64h-44.369L-4199,5834.134h-97.6l145.143-524.724h147.3q62.991,0,94.223,31.482,34.818,34.491,17.41,97.45l-15.551,56.221q-17.626,63.72-71.528,98.2a132.543,132.543,0,0,1-16.9,9.746Zm14.537-395.792q7.255-26.23-2.944-37.477-9.051-9-33.892-9h-49.691l-41.262,149.172h49.691q24.829,0,38.868-8.992,16.212-10.488,23.679-37.483Z" fill="#003dff"/>
          <path id="Path_4" data-name="Path 4" d="M-3873.364,5834.134l145.143-524.724h97.6l-145.143,524.724Z" fill="#003dff"/>
          <path id="Path_5" data-name="Path 5" d="M-3188.741,5309.41l-145.143,524.724h-56.788l-75.463-266.107-73.607,266.107h-97.6L-3492.2,5309.41h56.787l75.67,265.36,73.4-265.36Z" fill="#003dff"/>
          <path id="Path_6" data-name="Path 6" d="M-2780.588,5309.41l-22.808,82.456h-99.379l-122.335,442.268h-97.6l122.335-442.268h-99.379l22.808-82.456Z" fill="#003dff"/>
          <path id="Path_7" data-name="Path 7" d="M-2679.825,5840.129q-63.888,0-94.429-30.734-34.428-35.979-17.2-98.2l18.868-68.211h97.6l-18.868,68.211q-7.464,26.985,2.943,37.482,9.031,8.992,33.893,8.993,25.727,0,38.868-8.993,16-9.731,23.675-37.482l9.124-32.984q9.532-34.466-16.242-59.967-5.665-5.235-31.879-19.486-36.537-18.732-52.1-32.984-25.31-23.985-33.665-54.725t1.387-65.962l3.525-12.743q17.209-62.217,71.527-98.2,47.538-30.733,111.432-30.734t94.426,30.734q34.407,35.979,17.2,98.2l-12.649,45.727h-97.6l12.649-45.727q7.668-27.727-2.939-37.483-8.163-8.992-33.894-8.993-24.85,0-38.868,8.993-16.217,10.507-23.678,37.483l-3.525,12.743q-9.538,34.482,16.452,59.219,7.2,6.009,29.626,17.991,40.323,20.993,54.35,34.479,51.973,49.477,32.072,121.435l-9.124,32.984q-17.214,62.233-71.528,98.2Q-2615.955,5840.146-2679.825,5840.129Z" fill="#003dff"/>
        </g>
        <g id="Group_2" data-name="Group 2">
          <path id="Path_8" data-name="Path 8" d="M-3617,2828.976q136.529-65.062,176.569-209.559l56.61-204.658q79.043-285.753-230.5-285.787l-338.138-.577-11.594,41.914-208.993,755.558c118.268-72.831,259.084-117.085,399.965-117.085C-3716.849,2808.782-3664.559,2815.888-3617,2828.976Zm-211.051-117.287h-53.369l107.842-389.872h82.1q101,0,75.289,92.944l-56.608,204.652q-18.034,65.2-87.225,86.708Q-3779.6,2711.674-3828.051,2711.689Z" fill="#003dff"/>
        </g>
        <g id="Group_4" data-name="Group 4">
          <g id="Group_3" data-name="Group 3">
            <path id="Path_9" data-name="Path 9" d="M-3357.852,3038.778c-42.83-99.646-134.529-175.507-259.148-209.8a462.549,462.549,0,0,1-71.959,26.971l85.933,633.344h-254.553l-43.79-598.663-30.51,3.477-164.633,595.186H-4328.9l155.847-563.424c-140.113,86.284-248.552,212.715-287.554,353.714-44.884,162.268,12.723,305.349,137.176,390q108.252-100.377,305.814-100.392,221.754,0,261.482,125.892c114.808-46.05,217.821-118.166,293.79-205.793h-20.124Z" fill="#003dff"/>
          </g>
        </g>
        <path id="Path_10" data-name="Path 10" d="M-2867.488,4286.457c76.14-35.817,158.522-59.946,242.538-69.409l8.14-29.427.019,28.413a694.274,694.274,0,0,1,69.714-3.933,614.549,614.549,0,0,1,105.679,9.032l-1-471.245c-100.655-3.494-187.869-29.992-256.344-73.472Z" fill="#003dff"/>
        <g id="Group_5" data-name="Group 5">
          <path id="Path_11" data-name="Path 11" d="M-2556.826,2321.815l53.531-193.536H-3106l-251.85,910.5c30.285,70.455,36.18,152.783,11.831,240.8-20.846,75.37-61.575,146.56-116.322,209.71h582.581l19.525-70.583c-3.495-39.059-.58-80.276,9.52-122.958h-345.829L-3088.71,2905.9h318.586l53.721-194.21H-3034.99l107.842-389.871Z" fill="#003dff"/>
          <path id="Path_12" data-name="Path 12" d="M-2556.826,2321.815l53.531-193.536H-3106l-251.85,910.5c30.285,70.455,36.18,152.783,11.831,240.8-20.846,75.37-61.575,146.56-116.322,209.71h582.581l19.525-70.583c-3.495-39.059-.58-80.276,9.52-122.958h-345.829L-3088.71,2905.9h318.586l53.721-194.21H-3034.99l107.842-389.871Z" fill="#003dff"/>
          <path id="Path_13" data-name="Path 13" d="M-1835.921,2914.974c3.348,24.624.9,52.3-7.644,83.18l-56.8,205.344q-78.858,285.088-388.421,285.1c-3.274,0-8.27.243-14.969.687h-343.226l167.773-606.539c-177.982,83.636-321.231,230.052-367.367,396.835q-2.246,8.119-4.139,16.169h24.489l-34.009,122.958c9.612,107.4,68.04,198.367,161.489,257.708l23.611-85.362h232.4l.34,158.834c7.574.263,15.17.492,22.891.492a718.432,718.432,0,0,0,157.733-18.051l38.127-137.835,216.084-3.44-11.628,42.027c139.947-86.279,248.235-212.618,287.2-353.5C-1691.319,3132.558-1734.824,3001.311-1835.921,2914.974Z" fill="#003dff"/>
        </g>
        <path id="Path_14" data-name="Path 14" d="M-2259.25,3295.756q101,0,126.517-92.257l56.8-205.345q18.033-65.195-39.448-86.015-16.328-6.246-64.788-6.242h-73.054l-107.838,389.859Z" fill="#003dff"/>
        <g id="Group_6" data-name="Group 6">
          <path id="Path_15" data-name="Path 15" d="M-2096.48,2921.507a79.991,79.991,0,0,0-12.011-6.592A79.991,79.991,0,0,1-2096.48,2921.507Z" fill="#003dff"/>
          <path id="Path_16" data-name="Path 16" d="M-1918.462,2808.8q142.623-55.523,179.658-189.383l56.608-204.652q79.047-285.771-230.512-285.793l-357.812-.693-208.69,754.467c99.492-46.753,209.793-73.964,320.157-73.964,133.75,0,245.439,39.84,323.132,106.192C-1845.643,2850.494-1918.462,2808.8-1918.462,2808.8Zm3.9-394.04-56.609,204.658q-18.038,65.195-87.224,86.7-19.591,5.553-68.05,5.55h-73.06l107.835-389.854h101.821Q-1888.846,2321.816-1914.559,2414.76Z" fill="#003dff"/>
        </g>
        <g id="Group_7" data-name="Group 7">
          <path id="Path_17" data-name="Path 17" d="M-3756.267,3695c0,.017.011.035.014.052.014-.007.032-.012.046-.018Z" fill="#003dff"/>
          <path id="Path_18" data-name="Path 18" d="M-3746.244,4442.591h0Z" fill="#003dff"/>
          <path id="Path_19" data-name="Path 19" d="M-2211.966,4329.681l192.7-696.648a800.108,800.108,0,0,1-242.587,99.248l-137.772,498.086c-13.641-3.513-27.465-6.777-41.843-9.281l.337,159.309,41.5-150.029c75.375,19.4,138.96,53.73,187.664,99.315L-2384.109,4952h-232.357l-.4-736.011c-2.73.274-5.435.711-8.157,1.015l-203.308,735h-223.342l184.109-665.584c-151.578,71.307-277.452,188.051-340.026,324.227l-39.623-291.986q198.849-56.87,248.53-236.53l56.609-204.657q79.047-285.764-230.5-285.787l-338.111-.675-235.557,851.585c30.187,70.431,36.556,152.442,12.229,240.383s-76.06,169.95-145.213,240.382L-3887.15,4952h232.384l164.637-595.186,30.514-3.471L-3415.83,4952H-3209c67.017,121.937,211.946,201.892,401.324,201.892,307.858,0,615.758-210.838,687.7-470.915C-2081,4542.076-2119.753,4415.983-2211.966,4329.681Zm-1106.3-160.852q-19.591,5.551-68.029,5.549h-53.369l107.838-389.854h82.106q100.989,0,75.287,92.944l-56.609,204.658Q-3249.074,4147.322-3318.267,4168.829ZM-3208.988,4952c-41.935-76.3-53.552-168.926-25.863-269.024,6.823-24.664,16.4-48.7,27.258-72.334L-3161.278,4952Z" fill="#003dff"/>
          <path id="Path_20" data-name="Path 20" d="M-3881.9,4286.418l119.347-431.464q26.595-96.167,6.3-159.9a772.268,772.268,0,0,1-188.728,49.553q-8.822,1.131-17.663,2.043a692.434,692.434,0,0,1-70.966,3.682,617.184,617.184,0,0,1-103.409-8.468q-9.812-1.667-19.4-3.65c-63.87-13.206-120.173-36.784-167.015-68.63q-74.431,69-106.7,185.37l-131.312,474.721c-139.958,86.3-248.467,212.4-287.44,353.3-71.943,260.077,119.3,470.915,427.176,470.915,203.775,0,407.11-92.664,542.477-230.535l132.984-480.765C-3773.287,4379.49-3819.718,4325.967-3881.9,4286.418Zm-110.9,400.939q-79.063,285.827-413.455,286.5-333.379,0-254.133-286.5l98.936-357.677c79.141-48.8,168.245-84.58,260.893-103.064l102.8-371.662q25.526-92.281,125.709-92.275h1.634q100.794.7,75.473,92.275l-99.822,360.881a632.783,632.783,0,0,0-66.427-3.781c-46.769,0-93.432,5.4-139.368,14.562L-4428,4687.357q-25.526,92.281,75.476,92.276,101.828,0,127.339-92.276l130.427-471.518c82.457,8.667,154.438,33.429,212.863,70.584Z" fill="#003dff"/>
        </g>
      </g>
    </g>
  </g>
</svg>
